# xmcd CD database file
#
# Track frame offsets:
#	150
#	11956
#	30865
#	46769
#	62792
#	76443
#	90757
#	102265
#	117694
#	134444
#	146619
#	159001
#	174863
#	188139
#	198636
#	217093
#	231846
#	248636
#	260816
#	275487
#	288488
#	304238
#	318348
#	330210
#	344823
#
# Disc length: 4718 seconds
#
# Revision: 0
# Processed by: cddbd v1.5.2PL0 Copyright (c) Steve Scherf et al.
# Submitted via: CDex 1.70beta2
#
DISCID=6a126c19
DTITLE=Various Artist - Tros Country Top 100
DYEAR=2009
DGENRE=Country
TTITLE0=Johnny Cash - Ring Of Fire
TTITLE1=Dolly Parton and Kenny Rogers - Islands In The Stream
TTITLE2=Willie Nelson - Always On My Mind
TTITLE3=Shania Twain - You're Still The One
TTITLE4=John Denver - Annie's Song
TTITLE5=Glen Campbell - Rhinestone Cowboy
TTITLE6=Crystal Gayle - Don't It Make My Brown Eyes Blue
TTITLE7=Billy Ray Cyrus - Achy Breaky Heart
TTITLE8=The Oak Ridge Boys - Elvira
TTITLE9=Tammy Wynette - Stand By Your Man
TTITLE10=Charlie Rich - The Most Beautiful Girl
TTITLE11=Roy Orbison - You Got It
TTITLE12=Lynn Anderson - Rose Garden
TTITLE13=Jim Reeves - He'll Have To Go
TTITLE14=Don Williams - I Believe In You
TTITLE15=Ronnie Milsap - There's No Getting Over Me
TTITLE16=Alabama - Take Me Down
TTITLE17=Anne Murray - Walk Right Back
TTITLE18=Rodney Crowell - She's Crazy For Leaving
TTITLE19=Marty Robbins - Devil Woman
TTITLE20=Doug Stone - A Juke Box With A Country Song
TTITLE21=Helen Reddy - Delta Dawn
TTITLE22=Skeeter Davis - The End Of The World
TTITLE23=Lorne Greene - Ringo
TTITLE24=Chet Atkins - Yakety Axe
EXTD=YEAR: 2009
EXTT0=
EXTT1=
EXTT2=
EXTT3=
EXTT4=
EXTT5=
EXTT6=
EXTT7=
EXTT8=
EXTT9=
EXTT10=
EXTT11=
EXTT12=
EXTT13=
EXTT14=
EXTT15=
EXTT16=
EXTT17=
EXTT18=
EXTT19=
EXTT20=
EXTT21=
EXTT22=
EXTT23=
EXTT24=
PLAYORDER=
